<svg width="1200" height="750" viewBox="0 0 1200 750" fill="none" xmlns="http://www.w3.org/2000/svg">
  <rect width="1200" height="750" fill="#03100D"/>
  <rect x="115" y="90" width="970" height="570" rx="42" fill="#071914" stroke="#1F3B33" stroke-width="2"/>
  <rect x="225" y="150" width="300" height="455" rx="34" fill="#0D241D" stroke="#53F2B8" stroke-width="5"/>
  <rect x="252" y="194" width="246" height="330" rx="22" fill="#101827"/>
  <circle cx="375" cy="562" r="17" fill="#10B981"/>
  <rect x="603" y="174" width="370" height="250" rx="28" fill="#0D241D" stroke="#2E554A" stroke-width="3"/>
  <rect x="650" y="215" width="210" height="22" rx="11" fill="#D1FAE5"/>
  <rect x="650" y="265" width="260" height="16" rx="8" fill="#6EE7B7" opacity=".5"/>
  <rect x="650" y="312" width="170" height="16" rx="8" fill="#6EE7B7" opacity=".35"/>
  <rect x="603" y="465" width="370" height="92" rx="24" fill="#102820" stroke="#255B4E"/>
  <rect x="635" y="495" width="150" height="20" rx="10" fill="#10B981"/>
  <rect x="810" y="495" width="95" height="20" rx="10" fill="#A7F3D0" opacity=".7"/>
  <circle cx="930" cy="170" r="95" fill="#10B981" opacity=".16"/>
  <circle cx="250" cy="605" r="115" fill="#22D3EE" opacity=".08"/>
</svg>
