<svg width="1200" height="750" viewBox="0 0 1200 750" fill="none" xmlns="http://www.w3.org/2000/svg">
  <rect width="1200" height="750" fill="#03100D"/>
  <rect x="90" y="95" width="1020" height="560" rx="44" fill="#071914" stroke="#1F3B33" stroke-width="2"/>
  <circle cx="1000" cy="145" r="110" fill="#10B981" opacity=".16"/>
  <circle cx="245" cy="615" r="150" fill="#22D3EE" opacity=".09"/>
  <rect x="190" y="170" width="820" height="96" rx="24" fill="#0D241D" stroke="#2E554A" stroke-width="2"/>
  <circle cx="245" cy="218" r="22" stroke="#10B981" stroke-width="9"/>
  <path d="M262 235L293 266" stroke="#10B981" stroke-width="10" stroke-linecap="round"/>
  <rect x="330" y="199" width="455" height="18" rx="9" fill="#D1FAE5" opacity=".9"/>
  <rect x="330" y="230" width="270" height="14" rx="7" fill="#6EE7B7" opacity=".45"/>
  <rect x="805" y="191" width="145" height="54" rx="18" fill="#10B981"/>
  <rect x="200" y="312" width="210" height="72" rx="20" fill="#102820" stroke="#255B4E"/>
  <rect x="438" y="312" width="210" height="72" rx="20" fill="#102820" stroke="#255B4E"/>
  <rect x="676" y="312" width="210" height="72" rx="20" fill="#102820" stroke="#255B4E"/>
  <rect x="914" y="312" width="100" height="72" rx="20" fill="#102820" stroke="#255B4E"/>
  <rect x="220" y="335" width="128" height="16" rx="8" fill="#A7F3D0"/>
  <rect x="458" y="335" width="118" height="16" rx="8" fill="#A7F3D0"/>
  <rect x="696" y="335" width="144" height="16" rx="8" fill="#A7F3D0"/>
  <rect x="225" y="440" width="750" height="44" rx="14" fill="#0B201A" stroke="#21443B"/>
  <rect x="225" y="504" width="520" height="44" rx="14" fill="#0B201A" stroke="#21443B"/>
  <rect x="225" y="568" width="650" height="44" rx="14" fill="#0B201A" stroke="#21443B"/>
  <path d="M915 510C970 470 1005 500 1018 546C1034 605 957 625 930 575C912 542 890 529 915 510Z" fill="#10B981" opacity=".22"/>
</svg>
